<svg xmlns="http://www.w3.org/2000/svg" width="1200" height="630" viewBox="0 0 1200 630">
  <defs>
    <linearGradient id="bg" x1="0" y1="0" x2="1" y2="1">
      <stop offset="0" stop-color="#F8D2C9"/>
      <stop offset="0.5" stop-color="#F4DAD4"/>
      <stop offset="1" stop-color="#F1EFEE"/>
    </linearGradient>
  </defs>
  <rect width="1200" height="630" fill="url(#bg)"/>
  <!-- plant line decoration -->
  <g fill="none" stroke="#F8D2C9" stroke-width="3" opacity="0.55" transform="translate(930,60) scale(1.4)">
    <path d="M40 180 C 60 120, 90 90, 150 40"/>
    <path d="M95 96 C 80 70, 90 55, 120 60 C 110 85, 100 95, 95 96 Z"/>
    <path d="M120 70 C 130 45, 150 40, 168 52 C 150 78, 132 78, 120 70 Z"/>
    <path d="M70 130 C 55 110, 60 92, 88 96 C 82 120, 78 130, 70 130 Z"/>
  </g>
  <text x="100" y="250" font-family="'Shippori Mincho','Hiragino Mincho ProN',serif" font-size="46" letter-spacing="8" fill="#7D7373">茨城県北茨城市 ｜ 自然薯農家</text>
  <text x="96" y="360" font-family="'Shippori Mincho','Hiragino Mincho ProN',serif" font-size="96" font-weight="600" letter-spacing="14" fill="#3D3B3B">はなさとみ</text>
  <text x="100" y="450" font-family="'Shippori Mincho','Hiragino Mincho ProN',serif" font-size="40" letter-spacing="6" fill="#3D3B3B">土の香りごと、やさしく届ける自然薯を。</text>
  <text x="100" y="545" font-family="'Noto Sans JP',sans-serif" font-size="26" letter-spacing="6" fill="#7D7373">HANASATOMI ｜ hanasatomi.com</text>
</svg>
